<?xml version="1.0" standalone="no"?>
<!DOCTYPE svg PUBLIC "-//W3C//DTD SVG 20010904//EN"
 "http://www.w3.org/TR/2001/REC-SVG-20010904/DTD/svg10.dtd">
<svg version="1.0" xmlns="http://www.w3.org/2000/svg"
 width="512.000000pt" height="512.000000pt" viewBox="0 0 512.000000 512.000000"
 preserveAspectRatio="xMidYMid meet">
<metadata>
Created by potrace 1.14, written by Peter Selinger 2001-2017
</metadata>
<g transform="translate(0.000000,512.000000) scale(0.100000,-0.100000)"
fill="#000000" stroke="none">
<path d="M1283 5094 c-77 -51 -73 9 -73 -1032 l0 -928 -32 -19 c-161 -93 -338
-285 -432 -467 -137 -266 -170 -571 -92 -868 44 -166 165 -374 295 -507 l71
-72 -463 -3 -462 -3 -31 -24 c-87 -64 -79 -203 14 -250 20 -10 40 -19 45 -20
4 -1 385 -1 847 -1 l840 0 0 -94 c0 -164 32 -262 118 -357 44 -50 147 -119
176 -119 10 0 28 -26 48 -67 55 -114 164 -208 283 -245 50 -16 179 -18 231 -4
132 35 249 131 300 245 24 54 31 61 88 87 76 34 170 128 209 207 35 72 47 136
47 253 l0 94 858 2 857 3 34 25 c86 64 76 202 -19 250 -38 19 -58 20 -491 20
l-453 0 50 48 c387 370 474 963 211 1434 -92 165 -243 324 -403 425 l-44 28 0
929 0 930 -21 44 c-24 48 -78 81 -132 82 -73 0 -147 -75 -147 -151 0 -18 -11
-51 -24 -74 -43 -73 -51 -74 -456 -78 -195 -2 -365 -6 -378 -10 -37 -10 -131
-55 -162 -77 l-30 -21 -42 29 c-39 26 -101 55 -153 70 -11 3 -182 7 -380 9
-348 4 -360 5 -398 26 -44 24 -77 79 -77 127 0 41 -32 103 -65 124 -15 10 -48
20 -73 22 -39 4 -54 1 -89 -22z"/>
</g>
</svg>
